<svg width="24" height="24" viewBox="0 0 24 24" fill="none" xmlns="http://www.w3.org/2000/svg">
<path d="M12 23.9987L11.3063 23.4012C10.35 22.5966 2 15.3498 2 10.049C2 4.49911 6.47716 0 12 0C17.5228 0 22 4.49911 22 10.049C22 15.3499 13.65 22.5966 12.6976 23.4052L12 23.9987ZM12 2.17289C7.67341 2.17781 4.16724 5.70117 4.16234 10.049C4.16234 13.3791 9.2996 18.6988 12 21.1336C14.7005 18.6978 19.8377 13.375 19.8377 10.049C19.8328 5.70117 16.3266 2.17786 12 2.17289Z" fill="white"/>
<path d="M12 14.0324C9.8108 14.0324 8.03609 12.249 8.03609 10.049C8.03609 7.84908 9.8108 6.06567 12 6.06567C14.1892 6.06567 15.9639 7.84908 15.9639 10.049C15.9639 12.249 14.1893 14.0324 12 14.0324ZM12 8.0573C10.9054 8.0573 10.018 8.949 10.018 10.049C10.018 11.1489 10.9054 12.0406 12 12.0406C13.0946 12.0406 13.982 11.1489 13.982 10.049C13.982 8.949 13.0947 8.0573 12 8.0573Z" fill="white"/>
</svg>
