<svg width="216" height="38" viewBox="0 0 216 38" fill="none" xmlns="http://www.w3.org/2000/svg">
<path d="M73.7935 19.8625C73.7935 21.9563 73.4008 23.7375 72.6153 25.2063C71.836 26.675 70.7723 27.7969 69.424 28.5719C68.0819 29.3406 66.5728 29.725 64.8967 29.725C63.2083 29.725 61.6931 29.3375 60.351 28.5625C59.0089 27.7875 57.9482 26.6656 57.1689 25.1969C56.3896 23.7281 56 21.95 56 19.8625C56 17.7688 56.3896 15.9875 57.1689 14.5188C57.9482 13.05 59.0089 11.9313 60.351 11.1625C61.6931 10.3875 63.2083 10 64.8967 10C66.5728 10 68.0819 10.3875 69.424 11.1625C70.7723 11.9313 71.836 13.05 72.6153 14.5188C73.4008 15.9875 73.7935 17.7688 73.7935 19.8625ZM69.7208 19.8625C69.7208 18.5063 69.5198 17.3625 69.1178 16.4313C68.722 15.5 68.1623 14.7938 67.4387 14.3125C66.7151 13.8313 65.8678 13.5906 64.8967 13.5906C63.9257 13.5906 63.0784 13.8313 62.3548 14.3125C61.6312 14.7938 61.0684 15.5 60.6664 16.4313C60.2706 17.3625 60.0727 18.5063 60.0727 19.8625C60.0727 21.2188 60.2706 22.3625 60.6664 23.2937C61.0684 24.225 61.6312 24.9313 62.3548 25.4125C63.0784 25.8938 63.9257 26.1344 64.8967 26.1344C65.8678 26.1344 66.7151 25.8938 67.4387 25.4125C68.1623 24.9313 68.722 24.225 69.1178 23.2937C69.5198 22.3625 69.7208 21.2188 69.7208 19.8625Z" fill="#157EBF"/>
<path d="M88.2634 29.4627L82.159 21.2783H80.786V29.4627H76.769V10.2627H80.786V17.9315H81.5931L87.9016 10.2627H92.9019L85.4895 19.169L93.2452 29.4627H88.2634Z" fill="#157EBF"/>
<path d="M95.2654 29.4627V10.2627H99.2824V18.1846H107.437V10.2627H111.445V29.4627H107.437V21.5314H99.2824V29.4627H95.2654Z" fill="#157EBF"/>
<path d="M118.031 29.4627H113.727L120.286 10.2627H125.462L132.012 29.4627H127.707L122.948 14.6502H122.8L118.031 29.4627ZM117.762 21.9158H127.93V25.0846H117.762V21.9158Z" fill="#157EBF"/>
<path d="M136.535 29.7063C135.922 29.7063 135.397 29.4876 134.957 29.0501C134.525 28.6064 134.308 28.0751 134.308 27.4564C134.308 26.8439 134.525 26.3189 134.957 25.8813C135.397 25.4438 135.922 25.2251 136.535 25.2251C137.128 25.2251 137.648 25.4438 138.093 25.8813C138.538 26.3189 138.761 26.8439 138.761 27.4564C138.761 27.8689 138.656 28.247 138.446 28.5907C138.242 28.9282 137.973 29.2001 137.639 29.4063C137.305 29.6064 136.937 29.7063 136.535 29.7063Z" fill="#157EBF"/>
<path d="M158.844 16.9844H154.78C154.706 16.4531 154.555 15.9812 154.326 15.5687C154.097 15.15 153.803 14.7937 153.444 14.5C153.086 14.2062 152.671 13.9812 152.201 13.825C151.737 13.6688 151.233 13.5906 150.689 13.5906C149.706 13.5906 148.849 13.8375 148.119 14.3312C147.39 14.8187 146.824 15.5313 146.422 16.4688C146.02 17.4 145.819 18.5312 145.819 19.8625C145.819 21.2312 146.02 22.3812 146.422 23.3125C146.83 24.2437 147.399 24.9469 148.129 25.4219C148.858 25.8969 149.703 26.1344 150.661 26.1344C151.199 26.1344 151.697 26.0625 152.155 25.9188C152.619 25.775 153.03 25.5656 153.389 25.2906C153.747 25.0094 154.044 24.6688 154.279 24.2688C154.521 23.8688 154.688 23.4125 154.78 22.9L158.844 22.9188C158.739 23.8 158.476 24.65 158.055 25.4688C157.641 26.2812 157.081 27.0094 156.376 27.6531C155.677 28.2906 154.842 28.7969 153.871 29.1719C152.906 29.5406 151.815 29.725 150.596 29.725C148.902 29.725 147.386 29.3375 146.051 28.5625C144.721 27.7875 143.669 26.6656 142.896 25.1969C142.129 23.7281 141.746 21.95 141.746 19.8625C141.746 17.7688 142.136 15.9875 142.915 14.5188C143.694 13.05 144.752 11.9313 146.088 11.1625C147.424 10.3875 148.926 10 150.596 10C151.697 10 152.718 10.1563 153.658 10.4688C154.604 10.7813 155.442 11.2375 156.172 11.8375C156.902 12.4312 157.495 13.1594 157.953 14.0219C158.417 14.8844 158.714 15.8719 158.844 16.9844Z" fill="#157EBF"/>
<path d="M177.876 10.2627V29.4627H173.905V13.5627H166.224V29.4627H162.253V10.2627H177.876Z" fill="#157EBF"/>
<path d="M181.7 29.4627V10.2627H194.503V13.6096H185.717V18.1846H193.844V21.5314H185.717V26.1158H194.54V29.4627H181.7Z" fill="#157EBF"/>
<path d="M216 26.219L215.768 34.0002H211.946V29.4627H210.61V26.219H216ZM197.696 29.4627V10.2627H201.556V26.2002H209.46V10.2627H213.365V29.4627H197.696Z" fill="#157EBF"/>
<path fill-rule="evenodd" clip-rule="evenodd" d="M24 37.3266C34.2857 37.3266 42.624 28.9707 42.624 18.6633C42.624 8.35585 34.2857 0 24 0C13.7142 0 5.37598 8.35585 5.37598 18.6633C5.37598 28.9707 13.7142 37.3266 24 37.3266ZM24 33.0937C24.5188 33.0937 25.0313 33.0662 25.536 33.0125C30.0598 32.5318 33.9584 29.9519 36.2433 26.2633C36.8363 25.306 37.3206 24.2741 37.6789 23.1848C38.1468 21.7626 38.4 20.2426 38.4 18.6633C38.4 18.4051 38.3932 18.1485 38.3798 17.8937C38.3242 16.8331 38.1543 15.8029 37.8823 14.8152C36.3335 9.1917 31.4733 4.94492 25.536 4.31404C25.0313 4.26041 24.5188 4.23291 24 4.23291C23.4811 4.23291 22.9687 4.26041 22.464 4.31404C16.5267 4.94492 11.6665 9.1917 10.1176 14.8152C9.8456 15.8029 9.67572 16.8331 9.62011 17.8937C9.60674 18.1485 9.59998 18.4051 9.59998 18.6633C9.59998 20.2426 9.85314 21.7626 10.321 23.1848C10.6794 24.2741 11.1636 25.306 11.7566 26.2633C14.0415 29.9519 17.9401 32.5318 22.464 33.0125C22.9687 33.0662 23.4811 33.0937 24 33.0937Z" fill="#157EBF"/>
<path d="M10.1176 14.8152C9.8456 15.8029 9.67572 16.8331 9.62011 17.8937L22.464 17.8939H25.536L38.3798 17.8937C38.3242 16.8331 38.1543 15.8029 37.8823 14.8152L25.536 14.8154H22.464L10.1176 14.8152Z" fill="#157EBF"/>
<path fill-rule="evenodd" clip-rule="evenodd" d="M42.3359 38C42.3359 38 31.4736 37.5171 24.2881 37.519C17.1399 37.5205 5.66406 38 5.66406 38L0 21.9341H9.97144C10.0696 22.3584 10.1862 22.7756 10.321 23.1848L22.4641 23.1846V21.9341H25.5359V23.1846L37.6789 23.1848C37.8134 22.7756 37.9304 22.3584 38.0286 21.9341H48L42.3359 38ZM25.536 33.0125C30.0598 32.5318 33.9584 29.9519 36.2433 26.2633L25.5359 26.2632L25.536 33.0125ZM11.7566 26.2633L22.4641 26.2632L22.464 33.0125C17.9401 32.5318 14.0415 29.9519 11.7566 26.2633Z" fill="#157EBF"/>
<path d="M25.536 17.8939H22.464L22.4641 23.1846H25.5359L25.536 17.8939Z" fill="#157EBF"/>
<path d="M25.536 4.31404C25.0313 4.26041 24.5188 4.23291 24 4.23291C23.4811 4.23291 22.9687 4.26041 22.464 4.31404L22.464 14.8154H25.536L25.536 4.31404Z" fill="#157EBF"/>
</svg>
