<svg width="216" height="40" viewBox="0 0 216 40" fill="none" xmlns="http://www.w3.org/2000/svg">
<path d="M73.7935 20.8625C73.7935 22.9563 73.4008 24.7375 72.6153 26.2063C71.836 27.675 70.7723 28.7969 69.424 29.5719C68.0819 30.3406 66.5728 30.725 64.8967 30.725C63.2083 30.725 61.6931 30.3375 60.351 29.5625C59.0089 28.7875 57.9482 27.6656 57.1689 26.1969C56.3896 24.7281 56 22.95 56 20.8625C56 18.7688 56.3896 16.9875 57.1689 15.5188C57.9482 14.05 59.0089 12.9313 60.351 12.1625C61.6931 11.3875 63.2083 11 64.8967 11C66.5728 11 68.0819 11.3875 69.424 12.1625C70.7723 12.9313 71.836 14.05 72.6153 15.5188C73.4008 16.9875 73.7935 18.7688 73.7935 20.8625ZM69.7208 20.8625C69.7208 19.5063 69.5198 18.3625 69.1178 17.4313C68.722 16.5 68.1623 15.7938 67.4387 15.3125C66.7151 14.8313 65.8678 14.5906 64.8967 14.5906C63.9257 14.5906 63.0784 14.8313 62.3548 15.3125C61.6312 15.7938 61.0684 16.5 60.6664 17.4313C60.2706 18.3625 60.0727 19.5063 60.0727 20.8625C60.0727 22.2188 60.2706 23.3625 60.6664 24.2937C61.0684 25.225 61.6312 25.9313 62.3548 26.4125C63.0784 26.8938 63.9257 27.1344 64.8967 27.1344C65.8678 27.1344 66.7151 26.8938 67.4387 26.4125C68.1623 25.9313 68.722 25.225 69.1178 24.2937C69.5198 23.3625 69.7208 22.2188 69.7208 20.8625Z" fill="white"/>
<path d="M88.2635 30.4625L82.1591 22.2781H80.7861V30.4625H76.7691V11.2625H80.7861V18.9313H81.5932L87.9017 11.2625H92.902L85.4896 20.1688L93.2453 30.4625H88.2635Z" fill="white"/>
<path d="M95.2654 30.4625V11.2625H99.2824V19.1844H107.437V11.2625H111.445V30.4625H107.437V22.5312H99.2824V30.4625H95.2654Z" fill="white"/>
<path d="M118.031 30.4625H113.727L120.286 11.2625H125.462L132.012 30.4625H127.707L122.948 15.65H122.8L118.031 30.4625ZM117.762 22.9156H127.93V26.0844H117.762V22.9156Z" fill="white"/>
<path d="M136.535 30.7062C135.922 30.7062 135.397 30.4875 134.957 30.05C134.525 29.6063 134.308 29.075 134.308 28.4563C134.308 27.8438 134.525 27.3188 134.957 26.8812C135.397 26.4437 135.922 26.225 136.535 26.225C137.128 26.225 137.648 26.4437 138.093 26.8812C138.538 27.3188 138.761 27.8438 138.761 28.4563C138.761 28.8688 138.656 29.2469 138.446 29.5906C138.242 29.9281 137.973 30.2 137.639 30.4062C137.305 30.6063 136.937 30.7062 136.535 30.7062Z" fill="white"/>
<path d="M158.844 17.9844H154.78C154.706 17.4531 154.555 16.9812 154.326 16.5687C154.097 16.15 153.803 15.7937 153.444 15.5C153.086 15.2062 152.671 14.9812 152.201 14.825C151.737 14.6688 151.233 14.5906 150.689 14.5906C149.706 14.5906 148.849 14.8375 148.119 15.3312C147.39 15.8187 146.824 16.5313 146.422 17.4688C146.02 18.4 145.819 19.5312 145.819 20.8625C145.819 22.2312 146.02 23.3812 146.422 24.3125C146.83 25.2437 147.399 25.9469 148.129 26.4219C148.858 26.8969 149.703 27.1344 150.661 27.1344C151.199 27.1344 151.697 27.0625 152.155 26.9188C152.619 26.775 153.03 26.5656 153.389 26.2906C153.747 26.0094 154.044 25.6688 154.279 25.2688C154.521 24.8688 154.688 24.4125 154.78 23.9L158.844 23.9188C158.739 24.8 158.476 25.65 158.055 26.4688C157.641 27.2812 157.081 28.0094 156.376 28.6531C155.677 29.2906 154.842 29.7969 153.871 30.1719C152.906 30.5406 151.815 30.725 150.596 30.725C148.902 30.725 147.386 30.3375 146.051 29.5625C144.721 28.7875 143.669 27.6656 142.896 26.1969C142.129 24.7281 141.746 22.95 141.746 20.8625C141.746 18.7688 142.136 16.9875 142.915 15.5188C143.694 14.05 144.752 12.9313 146.088 12.1625C147.424 11.3875 148.926 11 150.596 11C151.697 11 152.718 11.1563 153.658 11.4688C154.604 11.7813 155.442 12.2375 156.172 12.8375C156.902 13.4312 157.495 14.1594 157.953 15.0219C158.417 15.8844 158.714 16.8719 158.844 17.9844Z" fill="white"/>
<path d="M177.876 11.2625V30.4625H173.905V14.5625H166.224V30.4625H162.253V11.2625H177.876Z" fill="white"/>
<path d="M181.7 30.4625V11.2625H194.503V14.6094H185.717V19.1844H193.844V22.5312H185.717V27.1156H194.54V30.4625H181.7Z" fill="white"/>
<path d="M216 27.2188L215.768 35H211.946V30.4625H210.61V27.2188H216ZM197.696 30.4625V11.2625H201.556V27.2H209.46V11.2625H213.365V30.4625H197.696Z" fill="white"/>
<path fill-rule="evenodd" clip-rule="evenodd" d="M24.288 38.519C31.4737 38.5174 42.336 39 42.336 39L48 22.9342H38.0285C37.9303 23.3585 37.8135 23.7757 37.6789 24.1848H25.536V22.9342H22.464V24.1848H10.321C10.1864 23.7757 10.0696 23.3585 9.97147 22.9342H0L5.664 39C5.664 39 17.1398 38.5206 24.288 38.519Z" fill="white"/>
<path fill-rule="evenodd" clip-rule="evenodd" d="M24 38.3266C34.2857 38.3266 42.624 29.9707 42.624 19.6633C42.624 9.35585 34.2857 1 24 1C13.7142 1 5.37598 9.35585 5.37598 19.6633C5.37598 29.9707 13.7142 38.3266 24 38.3266ZM24 34.0937C24.5188 34.0937 25.0313 34.0662 25.536 34.0125C30.0598 33.5318 33.9584 30.9519 36.2433 27.2633C36.8363 26.306 37.3206 25.2741 37.6789 24.1848C38.1468 22.7626 38.4 21.2426 38.4 19.6633C38.4 19.4051 38.3932 19.1485 38.3798 18.8937C38.3242 17.8331 38.1543 16.8029 37.8823 15.8152C36.3335 10.1917 31.4733 5.94492 25.536 5.31404C25.0313 5.26041 24.5188 5.23291 24 5.23291C23.4811 5.23291 22.9687 5.26041 22.464 5.31404C16.5267 5.94492 11.6665 10.1917 10.1176 15.8152C9.8456 16.8029 9.67572 17.8331 9.62011 18.8937C9.60674 19.1485 9.59998 19.4051 9.59998 19.6633C9.59998 21.2426 9.85314 22.7626 10.321 24.1848C10.6794 25.2741 11.1636 26.306 11.7566 27.2633C14.0415 30.9519 17.9401 33.5318 22.464 34.0125C22.9687 34.0662 23.4811 34.0937 24 34.0937Z" fill="white"/>
<path d="M10.1176 15.8152C9.8456 16.8029 9.67572 17.8331 9.62011 18.8937H22.464H25.536H38.3798C38.3242 17.8331 38.1543 16.8029 37.8823 15.8152H25.536H22.464H10.1176Z" fill="white"/>
<path fill-rule="evenodd" clip-rule="evenodd" d="M36.2433 27.2633C33.9584 30.9519 30.0598 33.5318 25.536 34.0125V27.2633H36.2433ZM22.464 27.2633H11.7566C14.0415 30.9519 17.9401 33.5318 22.464 34.0125V27.2633Z" fill="#263D53"/>
<path d="M25.536 18.8937H22.464V24.1848H25.536V18.8937Z" fill="white"/>
<path d="M25.536 5.31404C25.0313 5.26041 24.5188 5.23291 24 5.23291C23.4811 5.23291 22.9687 5.26041 22.464 5.31404V15.8152H25.536V5.31404Z" fill="white"/>
</svg>
