<svg width="32" height="32" viewBox="0 0 32 32" fill="none" xmlns="http://www.w3.org/2000/svg">
<path d="M31.2707 7.78844C31.4905 7.04625 31.2707 6.5 30.2133 6.5H26.7143C25.8233 6.5 25.4134 6.96906 25.1936 7.49156C25.1936 7.49156 23.4114 11.8319 20.8927 14.6462C20.0788 15.4597 19.7046 15.7209 19.259 15.7209C19.0392 15.7209 18.7006 15.4597 18.7006 14.7175V7.78844C18.7006 6.89781 18.4511 6.5 17.7145 6.5H12.2136C11.6552 6.5 11.3226 6.91563 11.3226 7.30156C11.3226 8.14469 12.5819 8.34062 12.7126 10.7156V15.8694C12.7126 16.9975 12.5107 17.2053 12.0651 17.2053C10.877 17.2053 7.98995 12.8472 6.27909 7.85969C5.93454 6.89188 5.59593 6.5 4.69892 6.5H1.19998C0.201976 6.5 0 6.96906 0 7.49156C0 8.41781 1.1881 13.0194 5.53059 19.0994C8.4236 23.2497 12.4988 25.5 16.2056 25.5C18.4333 25.5 18.7066 25.0012 18.7066 24.1403C18.7066 20.1741 18.5046 19.8 19.6214 19.8C20.1382 19.8 21.0293 20.0612 23.1085 22.0622C25.4847 24.4372 25.8767 25.5 27.2074 25.5H30.7064C31.7044 25.5 32.2093 25.0012 31.9182 24.0156C31.2529 21.9434 26.7559 17.6803 26.554 17.3953C26.0371 16.7303 26.1856 16.4334 26.554 15.8397C26.5599 15.8337 30.8311 9.825 31.2707 7.78844Z" fill="white"/>
</svg>
